<svg width="57" height="57" viewBox="0 0 57 57" fill="none" xmlns="http://www.w3.org/2000/svg">
<path d="M13.8938 40.6125C15.9125 39.0688 18.1688 37.8516 20.6625 36.9609C23.1563 36.0703 25.7688 35.625 28.5 35.625C31.2313 35.625 33.8438 36.0703 36.3375 36.9609C38.8313 37.8516 41.0875 39.0688 43.1063 40.6125C44.4917 38.9896 45.5703 37.149 46.3422 35.0906C47.1141 33.0323 47.5 30.8354 47.5 28.5C47.5 23.2354 45.6495 18.7526 41.9484 15.0516C38.2474 11.3505 33.7646 9.5 28.5 9.5C23.2354 9.5 18.7526 11.3505 15.0516 15.0516C11.3505 18.7526 9.5 23.2354 9.5 28.5C9.5 30.8354 9.88594 33.0323 10.6578 35.0906C11.4297 37.149 12.5083 38.9896 13.8938 40.6125ZM28.5 30.875C26.1646 30.875 24.1953 30.0734 22.5922 28.4703C20.9891 26.8672 20.1875 24.8979 20.1875 22.5625C20.1875 20.2271 20.9891 18.2578 22.5922 16.6547C24.1953 15.0516 26.1646 14.25 28.5 14.25C30.8354 14.25 32.8047 15.0516 34.4078 16.6547C36.0109 18.2578 36.8125 20.2271 36.8125 22.5625C36.8125 24.8979 36.0109 26.8672 34.4078 28.4703C32.8047 30.0734 30.8354 30.875 28.5 30.875ZM28.5 52.25C25.2146 52.25 22.1271 51.6266 19.2375 50.3797C16.3479 49.1328 13.8344 47.4406 11.6969 45.3031C9.55938 43.1656 7.86719 40.6521 6.62031 37.7625C5.37344 34.8729 4.75 31.7854 4.75 28.5C4.75 25.2146 5.37344 22.1271 6.62031 19.2375C7.86719 16.3479 9.55938 13.8344 11.6969 11.6969C13.8344 9.55938 16.3479 7.86719 19.2375 6.62031C22.1271 5.37344 25.2146 4.75 28.5 4.75C31.7854 4.75 34.8729 5.37344 37.7625 6.62031C40.6521 7.86719 43.1656 9.55938 45.3031 11.6969C47.4406 13.8344 49.1328 16.3479 50.3797 19.2375C51.6266 22.1271 52.25 25.2146 52.25 28.5C52.25 31.7854 51.6266 34.8729 50.3797 37.7625C49.1328 40.6521 47.4406 43.1656 45.3031 45.3031C43.1656 47.4406 40.6521 49.1328 37.7625 50.3797C34.8729 51.6266 31.7854 52.25 28.5 52.25Z" fill="#1D1B20"/>
</svg>
