<svg width="100" height="100" viewBox="0 0 100 100" fill="none" xmlns="http://www.w3.org/2000/svg">
<path d="M79.1667 79.1667V33.3333H20.8333V79.1667H79.1667ZM66.6667 4.16667H75V12.5H79.1667C81.3768 12.5 83.4964 13.378 85.0592 14.9408C86.622 16.5036 87.5 18.6232 87.5 20.8333V79.1667C87.5 83.7917 83.7917 87.5 79.1667 87.5H20.8333C18.6232 87.5 16.5036 86.622 14.9408 85.0592C13.378 83.4964 12.5 81.3768 12.5 79.1667V20.8333C12.5 16.2083 16.2083 12.5 20.8333 12.5H25V4.16667H33.3333V12.5H66.6667V4.16667ZM45.8333 39.5833H54.1667V52.0833H66.6667V60.4167H54.1667V72.9167H45.8333V60.4167H33.3333V52.0833H45.8333V39.5833Z" fill="black"/>
</svg>
