<svg width="84" height="46" viewBox="0 0 84 46" fill="none" xmlns="http://www.w3.org/2000/svg">
<path d="M23.6667 9.25001C22.3681 9.25001 21.2803 8.81001 20.4033 7.93001C19.5264 7.05001 19.0864 5.96223 19.0833 4.66668C19.0803 3.37112 19.5203 2.28334 20.4033 1.40334C21.2864 0.523344 22.3742 0.0833435 23.6667 0.0833435H78.6667C79.9653 0.0833435 81.0546 0.523344 81.9346 1.40334C82.8146 2.28334 83.2531 3.37112 83.25 4.66668C83.247 5.96223 82.807 7.05154 81.93 7.93459C81.0531 8.81765 79.9653 9.25612 78.6667 9.25001H23.6667ZM23.6667 27.5833C22.3681 27.5833 21.2803 27.1433 20.4033 26.2633C19.5264 25.3833 19.0864 24.2956 19.0833 23C19.0803 21.7045 19.5203 20.6167 20.4033 19.7367C21.2864 18.8567 22.3742 18.4167 23.6667 18.4167H78.6667C79.9653 18.4167 81.0546 18.8567 81.9346 19.7367C82.8146 20.6167 83.2531 21.7045 83.25 23C83.247 24.2956 82.807 25.3849 81.93 26.2679C81.0531 27.151 79.9653 27.5895 78.6667 27.5833H23.6667ZM23.6667 45.9167C22.3681 45.9167 21.2803 45.4767 20.4033 44.5967C19.5264 43.7167 19.0864 42.6289 19.0833 41.3333C19.0803 40.0378 19.5203 38.95 20.4033 38.07C21.2864 37.19 22.3742 36.75 23.6667 36.75H78.6667C79.9653 36.75 81.0546 37.19 81.9346 38.07C82.8146 38.95 83.2531 40.0378 83.25 41.3333C83.247 42.6289 82.807 43.7182 81.93 44.6013C81.0531 45.4843 79.9653 45.9228 78.6667 45.9167H23.6667ZM5.33335 9.25001C4.03474 9.25001 2.94696 8.81001 2.07002 7.93001C1.19307 7.05001 0.753071 5.96223 0.750016 4.66668C0.74696 3.37112 1.18696 2.28334 2.07002 1.40334C2.95307 0.523344 4.04085 0.0833435 5.33335 0.0833435C6.62585 0.0833435 7.71515 0.523344 8.60127 1.40334C9.48738 2.28334 9.92585 3.37112 9.91668 4.66668C9.90752 5.96223 9.46752 7.05154 8.59668 7.93459C7.72585 8.81765 6.63807 9.25612 5.33335 9.25001ZM5.33335 27.5833C4.03474 27.5833 2.94696 27.1433 2.07002 26.2633C1.19307 25.3833 0.753071 24.2956 0.750016 23C0.74696 21.7045 1.18696 20.6167 2.07002 19.7367C2.95307 18.8567 4.04085 18.4167 5.33335 18.4167C6.62585 18.4167 7.71515 18.8567 8.60127 19.7367C9.48738 20.6167 9.92585 21.7045 9.91668 23C9.90752 24.2956 9.46752 25.3849 8.59668 26.2679C7.72585 27.151 6.63807 27.5895 5.33335 27.5833ZM5.33335 45.9167C4.03474 45.9167 2.94696 45.4767 2.07002 44.5967C1.19307 43.7167 0.753071 42.6289 0.750016 41.3333C0.74696 40.0378 1.18696 38.95 2.07002 38.07C2.95307 37.19 4.04085 36.75 5.33335 36.75C6.62585 36.75 7.71515 37.19 8.60127 38.07C9.48738 38.95 9.92585 40.0378 9.91668 41.3333C9.90752 42.6289 9.46752 43.7182 8.59668 44.6013C7.72585 45.4843 6.63807 45.9228 5.33335 45.9167Z" fill="black"/>
</svg>
