<svg width="34" height="36" viewBox="0 0 34 36" fill="none" xmlns="http://www.w3.org/2000/svg">
<path d="M33.6142 26.2984C32.6312 24.6438 31.17 19.9618 31.17 13.8468C31.17 10.1744 29.6772 6.65239 27.02 4.05562C24.3627 1.45885 20.7588 0 17.0009 0C13.243 0 9.63903 1.45885 6.98181 4.05562C4.32458 6.65239 2.83177 10.1744 2.83177 13.8468C2.83177 19.9636 1.36881 24.6438 0.385827 26.2984C0.134804 26.7191 0.00172738 27.197 1.67036e-05 27.684C-0.00169398 28.171 0.128022 28.6498 0.376083 29.0721C0.624144 29.4945 0.981779 29.8454 1.41292 30.0896C1.84406 30.3337 2.33346 30.4625 2.83177 30.4629H10.0598C10.3867 32.0261 11.2561 33.431 12.5208 34.44C13.7856 35.4489 15.3682 36 17.0009 36C18.6336 36 20.2161 35.4489 21.4809 34.44C22.7457 33.431 23.6151 32.0261 23.942 30.4629H31.17C31.6682 30.4622 32.1573 30.3332 32.5882 30.0889C33.0191 29.8446 33.3765 29.4937 33.6244 29.0714C33.8722 28.6491 34.0018 28.1704 34 27.6836C33.9982 27.1967 33.8651 26.719 33.6142 26.2984ZM17.0009 33.2322C16.1221 33.2319 15.265 32.9655 14.5475 32.4696C13.83 31.9736 13.2875 31.2726 12.9946 30.4629H21.0072C20.7143 31.2726 20.1717 31.9736 19.4543 32.4696C18.7368 32.9655 17.8797 33.2319 17.0009 33.2322ZM2.83177 27.6935C4.19555 25.4019 5.66559 20.0916 5.66559 13.8468C5.66559 10.9088 6.85984 8.09126 8.98562 6.01385C11.1114 3.93643 13.9946 2.76935 17.0009 2.76935C20.0072 2.76935 22.8904 3.93643 25.0161 6.01385C27.1419 8.09126 28.3362 10.9088 28.3362 13.8468C28.3362 20.0864 29.8027 25.3967 31.17 27.6935H2.83177Z" fill="black"/>
</svg>
