<svg width="35" height="35" viewBox="0 0 35 35" fill="none" xmlns="http://www.w3.org/2000/svg">
<path d="M24.7916 2.91669V5.83335M17.5 2.91669V5.83335M10.2083 2.91669V5.83335M11.6666 21.875H17.5M11.6666 14.5834H23.3333M5.10413 23.3334V13.125C5.10413 9.00085 5.10413 6.93731 6.386 5.6569C7.66642 4.37502 9.72996 4.37502 13.8541 4.37502H21.1458C25.27 4.37502 27.3335 4.37502 28.6139 5.6569C29.8958 6.93731 29.8958 9.00085 29.8958 13.125V17.5C29.8958 24.3746 29.8958 27.8119 27.7593 29.9469C25.6258 32.0834 22.1885 32.0834 15.3125 32.0834H13.8541C9.72996 32.0834 7.66642 32.0834 6.386 30.8015C5.10413 29.5211 5.10413 27.4575 5.10413 23.3334Z" stroke="black" stroke-width="1.5" stroke-linecap="round" stroke-linejoin="round"/>
<path d="M29.8958 21.1459C29.8958 21.6247 29.8014 22.0987 29.6182 22.5411C29.435 22.9834 29.1665 23.3853 28.8279 23.7239C28.4894 24.0624 28.0875 24.331 27.6451 24.5142C27.2028 24.6974 26.7287 24.7917 26.2499 24.7917C25.5208 24.7917 24.6633 24.6648 23.956 24.8544C23.6468 24.9372 23.3649 25.1 23.1386 25.3263C22.9123 25.5526 22.7496 25.8344 22.6668 26.1436C22.4772 26.8509 22.6041 27.7098 22.6041 28.4375C22.6041 29.4045 22.22 30.3318 21.5362 31.0155C20.8525 31.6993 19.9252 32.0834 18.9583 32.0834" stroke="black" stroke-width="1.5" stroke-linecap="round" stroke-linejoin="round"/>
</svg>
