<svg width="51" height="42" viewBox="0 0 51 42" fill="none" xmlns="http://www.w3.org/2000/svg">
<path d="M35 5.00002L17 5.00002C16.8178 5.00059 16.6392 5.05085 16.4834 5.1454C16.3276 5.23994 16.2005 5.37518 16.1158 5.53657C16.0312 5.69796 15.9922 5.87938 16.0029 6.0613C16.0137 6.24322 16.0739 6.41876 16.177 6.56902L25.177 19.569C25.55 20.108 26.448 20.108 26.822 19.569L35.822 6.56902C35.9262 6.41907 35.9873 6.24345 35.9987 6.06122C36.01 5.879 35.9713 5.69714 35.8865 5.53541C35.8018 5.37368 35.6744 5.23826 35.5181 5.14387C35.3618 5.04948 35.1826 4.99973 35 5.00002Z" fill="black"/>
<path d="M9.99183 31.9091C9.99183 32.983 9.79794 33.911 9.41016 34.6932C9.02237 35.4754 8.49041 36.0786 7.81428 36.5028C7.13814 36.9271 6.36589 37.1392 5.49751 37.1392C4.62914 37.1392 3.85689 36.9271 3.18075 36.5028C2.50462 36.0786 1.97266 35.4754 1.58487 34.6932C1.19709 33.911 1.0032 32.983 1.0032 31.9091C1.0032 30.8352 1.19709 29.9072 1.58487 29.125C1.97266 28.3428 2.50462 27.7396 3.18075 27.3153C3.85689 26.8911 4.62914 26.679 5.49751 26.679C6.36589 26.679 7.13814 26.8911 7.81428 27.3153C8.49041 27.7396 9.02237 28.3428 9.41016 29.125C9.79794 29.9072 9.99183 30.8352 9.99183 31.9091ZM8.79865 31.9091C8.79865 31.0275 8.65116 30.2834 8.35618 29.6768C8.06451 29.0703 7.66844 28.6113 7.16797 28.2997C6.67081 27.9882 6.11399 27.8324 5.49751 27.8324C4.88104 27.8324 4.32256 27.9882 3.82209 28.2997C3.32493 28.6113 2.92886 29.0703 2.63388 29.6768C2.34221 30.2834 2.19638 31.0275 2.19638 31.9091C2.19638 32.7907 2.34221 33.5348 2.63388 34.1413C2.92886 34.7479 3.32493 35.2069 3.82209 35.5185C4.32256 35.83 4.88104 35.9858 5.49751 35.9858C6.11399 35.9858 6.67081 35.83 7.16797 35.5185C7.66844 35.2069 8.06451 34.7479 8.35618 34.1413C8.65116 33.5348 8.79865 32.7907 8.79865 31.9091ZM11.9059 39.8636V29.3636H13.0394V30.5767H13.1786C13.2648 30.4441 13.3841 30.2751 13.5366 30.0696C13.6924 29.8608 13.9144 29.6752 14.2028 29.5128C14.4944 29.3471 14.8888 29.2642 15.386 29.2642C16.029 29.2642 16.5958 29.425 17.0863 29.7464C17.5768 30.0679 17.9596 30.5237 18.2347 31.1136C18.5098 31.7036 18.6474 32.3996 18.6474 33.2017C18.6474 34.0104 18.5098 34.7114 18.2347 35.3047C17.9596 35.8946 17.5785 36.352 17.0913 36.6768C16.604 36.9983 16.0423 37.1591 15.4059 37.1591C14.9154 37.1591 14.5226 37.0779 14.2276 36.9155C13.9326 36.7498 13.7056 36.5625 13.5465 36.3537C13.3874 36.1416 13.2648 35.9659 13.1786 35.8267H13.0792V39.8636H11.9059ZM13.0593 33.1818C13.0593 33.7585 13.1438 34.2673 13.3129 34.7081C13.4819 35.1456 13.7288 35.4886 14.0536 35.7372C14.3784 35.9825 14.7762 36.1051 15.2468 36.1051C15.7373 36.1051 16.1467 35.9759 16.4748 35.7173C16.8062 35.4555 17.0548 35.1042 17.2205 34.6634C17.3896 34.2192 17.4741 33.7254 17.4741 33.1818C17.4741 32.6449 17.3912 32.161 17.2255 31.7301C17.0631 31.2959 16.8162 30.9529 16.4847 30.701C16.1566 30.4458 15.744 30.3182 15.2468 30.3182C14.7695 30.3182 14.3685 30.4392 14.0437 30.6811C13.7189 30.9197 13.4736 31.2545 13.3079 31.6854C13.1422 32.1129 13.0593 32.6117 13.0593 33.1818ZM23.5394 37.1591C22.8235 37.1591 22.207 36.9901 21.69 36.652C21.1729 36.3139 20.7752 35.8482 20.4968 35.255C20.2184 34.6617 20.0792 33.9839 20.0792 33.2216C20.0792 32.446 20.2217 31.7616 20.5067 31.1683C20.7951 30.5717 21.1961 30.1061 21.7099 29.7713C22.2269 29.4332 22.8301 29.2642 23.5195 29.2642C24.0565 29.2642 24.5404 29.3636 24.9712 29.5625C25.4021 29.7614 25.7551 30.0398 26.0302 30.3977C26.3053 30.7557 26.476 31.1733 26.5423 31.6506H25.369C25.2795 31.3026 25.0806 30.9943 24.7724 30.7259C24.4674 30.4541 24.0565 30.3182 23.5394 30.3182C23.082 30.3182 22.681 30.4375 22.3363 30.6761C21.9949 30.9115 21.7281 31.2446 21.5359 31.6754C21.3469 32.103 21.2525 32.6051 21.2525 33.1818C21.2525 33.7718 21.3453 34.2855 21.5309 34.723C21.7198 35.1605 21.985 35.5002 22.3263 35.7422C22.671 35.9841 23.0754 36.1051 23.5394 36.1051C23.8443 36.1051 24.1211 36.0521 24.3697 35.946C24.6183 35.84 24.8287 35.6875 25.0011 35.4886C25.1734 35.2898 25.296 35.0511 25.369 34.7727H26.5423C26.476 35.2235 26.3119 35.6295 26.0501 35.9908C25.7915 36.3487 25.4485 36.6338 25.021 36.8459C24.5967 37.0547 24.1029 37.1591 23.5394 37.1591ZM22.9826 36.9602H23.957L23.8775 37.358C24.136 37.3977 24.373 37.5054 24.5884 37.6811C24.8039 37.8601 24.9116 38.1435 24.9116 38.5312C24.9116 38.9588 24.7343 39.3068 24.3796 39.5753C24.0283 39.8471 23.5096 39.983 22.8235 39.983L22.7837 39.2074C23.092 39.2074 23.3472 39.1577 23.5494 39.0582C23.7549 38.9621 23.8576 38.7997 23.8576 38.571C23.8576 38.3423 23.7731 38.1866 23.604 38.1037C23.435 38.0208 23.1616 37.9645 22.7837 37.9347L22.9826 36.9602ZM31.3597 37.1591C30.6703 37.1591 30.0655 36.995 29.5451 36.6669C29.0281 36.3388 28.6237 35.8797 28.332 35.2898C28.0437 34.6998 27.8995 34.0104 27.8995 33.2216C27.8995 32.4261 28.0437 31.7318 28.332 31.1385C28.6237 30.5452 29.0281 30.0845 29.5451 29.7564C30.0655 29.4283 30.6703 29.2642 31.3597 29.2642C32.0491 29.2642 32.6523 29.4283 33.1694 29.7564C33.6897 30.0845 34.0941 30.5452 34.3825 31.1385C34.6741 31.7318 34.82 32.4261 34.82 33.2216C34.82 34.0104 34.6741 34.6998 34.3825 35.2898C34.0941 35.8797 33.6897 36.3388 33.1694 36.6669C32.6523 36.995 32.0491 37.1591 31.3597 37.1591ZM31.3597 36.1051C31.8834 36.1051 32.3143 35.9709 32.6523 35.7024C32.9904 35.4339 33.2406 35.081 33.4031 34.6435C33.5655 34.206 33.6467 33.732 33.6467 33.2216C33.6467 32.7112 33.5655 32.2356 33.4031 31.7947C33.2406 31.3539 32.9904 30.9976 32.6523 30.7259C32.3143 30.4541 31.8834 30.3182 31.3597 30.3182C30.8361 30.3182 30.4052 30.4541 30.0671 30.7259C29.729 30.9976 29.4788 31.3539 29.3164 31.7947C29.154 32.2356 29.0728 32.7112 29.0728 33.2216C29.0728 33.732 29.154 34.206 29.3164 34.6435C29.4788 35.081 29.729 35.4339 30.0671 35.7024C30.4052 35.9709 30.8361 36.1051 31.3597 36.1051ZM29.8285 28.4489L28.9137 28.4091C28.9137 27.902 29.0579 27.4877 29.3462 27.1662C29.6379 26.8414 29.9975 26.679 30.4251 26.679C30.614 26.679 30.7814 26.7121 30.9272 26.7784C31.073 26.8414 31.2122 26.9143 31.3448 26.9972C31.4774 27.08 31.6133 27.1546 31.7525 27.2209C31.895 27.2839 32.0558 27.3153 32.2347 27.3153C32.4237 27.3153 32.5827 27.2424 32.712 27.0966C32.8446 26.9474 32.9109 26.7685 32.9109 26.5597L33.8058 26.6392C33.8058 27.1562 33.6599 27.5672 33.3683 27.8722C33.0799 28.1771 32.7219 28.3295 32.2944 28.3295C32.0657 28.3295 31.8768 28.2981 31.7276 28.2351C31.5785 28.1688 31.4459 28.0942 31.3299 28.0114C31.2139 27.9285 31.0913 27.8556 30.962 27.7926C30.8327 27.7263 30.6737 27.6932 30.4847 27.6932C30.2958 27.6932 30.1384 27.7678 30.0124 27.9169C29.8898 28.0627 29.8285 28.2401 29.8285 28.4489ZM39.8127 37.1591C39.0769 37.1591 38.4422 36.9967 37.9086 36.6719C37.3783 36.3438 36.9689 35.8864 36.6806 35.2997C36.3955 34.7098 36.253 34.0237 36.253 33.2415C36.253 32.4593 36.3955 31.7699 36.6806 31.1733C36.9689 30.5734 37.37 30.1061 37.8837 29.7713C38.4007 29.4332 39.004 29.2642 39.6934 29.2642C40.0911 29.2642 40.4838 29.3305 40.8716 29.4631C41.2594 29.5956 41.6124 29.8111 41.9306 30.1094C42.2488 30.4044 42.5023 30.7955 42.6912 31.2827C42.8801 31.7699 42.9746 32.3698 42.9746 33.0824V33.5795H37.0882V32.5653H41.7814C41.7814 32.1345 41.6953 31.75 41.5229 31.4119C41.3539 31.0739 41.1119 30.8071 40.7971 30.6115C40.4855 30.416 40.1176 30.3182 39.6934 30.3182C39.226 30.3182 38.8217 30.4342 38.4803 30.6662C38.1422 30.8949 37.882 31.1932 37.6998 31.5611C37.5175 31.929 37.4263 32.3234 37.4263 32.7443V33.4205C37.4263 33.9972 37.5257 34.486 37.7246 34.8871C37.9268 35.2848 38.2069 35.5881 38.5648 35.7969C38.9228 36.0024 39.3387 36.1051 39.8127 36.1051C40.1209 36.1051 40.3993 36.062 40.6479 35.9759C40.8998 35.8864 41.1169 35.7538 41.2992 35.5781C41.4815 35.3991 41.6223 35.1771 41.7218 34.9119L42.8553 35.2301C42.736 35.6146 42.5355 35.9527 42.2537 36.2443C41.972 36.5327 41.624 36.758 41.2097 36.9205C40.7954 37.0795 40.3297 37.1591 39.8127 37.1591ZM50.1685 31.0739L49.1145 31.3722C49.0482 31.1965 48.9505 31.0258 48.8212 30.8601C48.6953 30.6911 48.5229 30.5518 48.3042 30.4425C48.0854 30.3331 47.8053 30.2784 47.464 30.2784C46.9966 30.2784 46.6072 30.3861 46.2956 30.6016C45.9874 30.8137 45.8333 31.0838 45.8333 31.4119C45.8333 31.7036 45.9393 31.9339 46.1515 32.103C46.3636 32.272 46.695 32.4129 47.1458 32.5256L48.2793 32.804C48.9621 32.9697 49.4708 33.2232 49.8056 33.5646C50.1403 33.9027 50.3077 34.3385 50.3077 34.8722C50.3077 35.3097 50.1818 35.7008 49.9299 36.0455C49.6813 36.3902 49.3333 36.6619 48.8858 36.8608C48.4384 37.0597 47.918 37.1591 47.3248 37.1591C46.5459 37.1591 45.9012 36.9901 45.3908 36.652C44.8804 36.3139 44.5572 35.8201 44.4213 35.1705L45.535 34.892C45.641 35.303 45.8416 35.6113 46.1365 35.8168C46.4348 36.0223 46.8243 36.125 47.3049 36.125C47.8517 36.125 48.2859 36.009 48.6074 35.777C48.9322 35.5417 49.0946 35.2599 49.0946 34.9318C49.0946 34.6667 49.0018 34.4446 48.8162 34.2656C48.6306 34.0833 48.3456 33.9474 47.9611 33.858L46.6884 33.5597C45.9891 33.3939 45.4753 33.1371 45.1472 32.7891C44.8224 32.4377 44.66 31.9986 44.66 31.4716C44.66 31.0407 44.781 30.6596 45.0229 30.3281C45.2682 29.9967 45.6013 29.7365 46.0222 29.5476C46.4464 29.3587 46.927 29.2642 47.464 29.2642C48.2196 29.2642 48.8129 29.4299 49.2438 29.7614C49.678 30.0928 49.9862 30.5303 50.1685 31.0739Z" fill="black"/>
</svg>
